<svg width="342" height="345" viewBox="0 0 342 345" fill="none" xmlns="http://www.w3.org/2000/svg">
<path d="M9.49265 211.093H26.8974C33.1 211.093 38.1295 216.095 38.1295 222.263V284.149C38.1295 314.994 63.274 340 94.2906 340H133.507C135.989 340 138 337.999 138 335.532V272.865C138 270.397 135.988 268.397 133.507 268.397H104.73C98.5272 268.397 93.4977 263.396 93.4977 257.227V87.7722C93.4977 81.6039 98.5272 76.6022 104.73 76.6022H133.507C135.989 76.6022 138 74.6017 138 72.1345V9.46773C138 7.00054 135.988 5 133.507 5H94.2906C63.274 5 38.1295 30.0046 38.1295 60.851V125.528C38.1295 131.697 33.1 136.698 26.8974 136.698H9.49265C7.01175 136.698 5 138.699 5 141.166V206.625C5 209.093 7.01175 211.093 9.49265 211.093Z" fill="#32A852" stroke="#1E1E1E" stroke-width="10" stroke-miterlimit="10" stroke-linejoin="round"/>
<path d="M332.507 133.907H315.103C308.9 133.907 303.871 128.905 303.871 122.737V60.851C303.871 30.0057 278.726 5 247.709 5H208.493C206.011 5 204 7.00054 204 9.46773V72.1345C204 74.6028 206.012 76.6033 208.493 76.6033H237.27C243.473 76.6033 248.502 81.6039 248.502 87.7733V257.228C248.502 263.396 243.473 268.398 237.27 268.398H208.493C206.011 268.398 204 270.398 204 272.865V335.532C204 337.999 206.012 340 208.493 340H247.709C278.726 340 303.871 314.995 303.871 284.149V219.472C303.871 213.303 308.9 208.302 315.103 208.302H332.507C334.989 208.302 337 206.301 337 203.834V138.375C337 135.907 334.989 133.907 332.507 133.907Z" fill="#32A852" stroke="#1E1E1E" stroke-width="10" stroke-miterlimit="10" stroke-linejoin="round"/>
</svg>
