<svg width="399" height="646" viewBox="0 0 399 646" fill="none" xmlns="http://www.w3.org/2000/svg">
<rect x="5" y="5" width="389" height="636" stroke="#282828" stroke-width="10"/>
<path d="M117.344 67L117.672 103.705L102.245 140.697L98.6339 160.484L92.7254 168.8L92.069 191.167L86.817 195.755L85.8322 234.755L80.252 240.777V298.129L75.6565 303.291L75 578.867H159.688V303.004L155.093 298.416V240.49L149.513 235.042L148.528 196.042L143.932 191.454L142.948 168.8L137.696 160.771L133.428 140.411L118.001 103.705" stroke="black" stroke-width="8" stroke-miterlimit="1.5" stroke-linecap="round" stroke-linejoin="round"/>
<path d="M98.6484 160.197H136.725" stroke="black" stroke-width="8" stroke-miterlimit="1.5" stroke-linecap="round" stroke-linejoin="round"/>
<path d="M92.0703 190.307H142.621" stroke="black" stroke-width="8" stroke-miterlimit="1.5" stroke-linecap="round" stroke-linejoin="round"/>
<path d="M86.1641 234.18H148.86" stroke="black" stroke-width="8" stroke-miterlimit="1.5" stroke-linecap="round" stroke-linejoin="round"/>
<path d="M80.5859 298.129H153.785" stroke="black" stroke-width="8" stroke-miterlimit="1.5" stroke-linecap="round" stroke-linejoin="round"/>
<path d="M282.125 67L281.797 103.705L297.225 140.697L300.836 160.484L306.744 168.8L307.401 191.167L312.653 195.755L313.637 234.755L319.218 240.777V298.129L323.813 303.291L324.47 578.867H239.781V303.004L244.377 298.416V240.49L249.957 235.042L250.942 196.042L255.537 191.454L256.522 168.8L261.774 160.771L266.041 140.411L281.469 103.705" stroke="black" stroke-width="8" stroke-miterlimit="1.5" stroke-linecap="round" stroke-linejoin="round"/>
<path d="M300.843 160.197H262.766" stroke="black" stroke-width="8" stroke-miterlimit="1.5" stroke-linecap="round" stroke-linejoin="round"/>
<path d="M307.402 190.307H256.852" stroke="black" stroke-width="8" stroke-miterlimit="1.5" stroke-linecap="round" stroke-linejoin="round"/>
<path d="M313.305 234.18H250.609" stroke="black" stroke-width="8" stroke-miterlimit="1.5" stroke-linecap="round" stroke-linejoin="round"/>
<path d="M318.903 298.129H245.703" stroke="black" stroke-width="8" stroke-miterlimit="1.5" stroke-linecap="round" stroke-linejoin="round"/>
<path d="M239.444 370.389H160.008V383.293H239.444V370.389Z" stroke="black" stroke-width="8" stroke-miterlimit="1.5" stroke-linecap="round" stroke-linejoin="round"/>
<path d="M199.634 383.293L160.008 442.652" stroke="black" stroke-width="8" stroke-miterlimit="1.5" stroke-linecap="round" stroke-linejoin="round"/>
<path d="M199.633 383.293L239.771 442.652" stroke="black" stroke-width="8" stroke-miterlimit="1.5" stroke-linecap="round" stroke-linejoin="round"/>
</svg>
